<?xml version="1.0" encoding="UTF-8"?>
<svg version="1.1" viewBox="0 0 371.41 93.38" xmlns="http://www.w3.org/2000/svg" xmlns:cc="http://creativecommons.org/ns#" xmlns:dc="http://purl.org/dc/elements/1.1/" xmlns:rdf="http://www.w3.org/1999/02/22-rdf-syntax-ns#">
<metadata>
<rdf:RDF>
<cc:Work rdf:about="">
<dc:format>image/svg+xml</dc:format>
<dc:type rdf:resource="http://purl.org/dc/dcmitype/StillImage"/>
<dc:title/>
</cc:Work>
</rdf:RDF>
</metadata>
<g transform="translate(-142.87 -232.74)">
<path d="m509.01 292.47c-0.82125 0-1.4638-0.2325-1.9325-0.7025-0.47-0.46875-0.70375-1.1125-0.70375-1.9325v-21.961c0-2.225-0.69-4.1725-2.0638-5.8425-1.3762-1.67-3.47-2.5038-6.2812-2.5038-2.81 0-4.905 0.83375-6.2812 2.5038s-2.0638 3.6175-2.0638 5.8425v21.961c0 0.82-0.235 1.4638-0.7025 1.9325-0.47 0.47-1.1138 0.7025-1.9325 0.7025h-2.6375c-0.82 0-1.4638-0.2325-1.9312-0.7025-0.47-0.46875-0.7025-1.1125-0.7025-1.9325v-21.961c0-2.11 0.395-4.13 1.1862-6.0625 0.79-1.9325 1.8888-3.615 3.2938-5.05 1.405-1.4362 3.1038-2.5775 5.095-3.4262 1.99-0.84875 4.2175-1.275 6.6762-1.275 2.46 0 4.685 0.42625 6.6762 1.275 1.99 0.84875 3.69 1.99 5.0962 3.4262 1.405 1.435 2.5025 3.1175 3.2938 5.05s1.185 3.9525 1.185 6.0625v21.961c0 0.82-0.23375 1.4638-0.70375 1.9325-0.46875 0.47-1.1112 0.7025-1.9312 0.7025zm-45.679-36.896c0-0.81875 0.2325-1.4625 0.70375-1.9325 0.4675-0.4675 1.1112-0.7025 1.9312-0.7025h2.635c0.82125 0 1.4638 0.235 1.9338 0.7025 0.46875 0.47 0.7025 1.1138 0.7025 1.9325v21.961c0 2.1088-0.3825 4.13-1.1425 6.0625-0.76125 1.9325-1.8312 3.6162-3.2062 5.05-1.3762 1.4362-3.0462 2.5788-5.0075 3.4262-1.9612 0.84875-4.1725 1.275-6.6312 1.275-2.46 0-4.6725-0.42625-6.6338-1.275-1.9625-0.8475-3.645-1.99-5.05-3.4262-1.4062-1.4338-2.4912-3.1175-3.2512-5.05-0.76125-1.9325-1.1412-3.9538-1.1412-6.0625v-21.961c0-0.81875 0.2325-1.4625 0.7025-1.9325 0.46875-0.4675 1.1112-0.7025 1.9325-0.7025h2.635c0.82 0 1.4638 0.235 1.9325 0.7025 0.47 0.47 0.70375 1.1138 0.70375 1.9325v21.961c0 2.2275 0.6575 4.1725 1.9762 5.8425s3.3825 2.5038 6.1938 2.5038 4.86-0.83375 6.1488-2.5038c1.2862-1.67 1.9325-3.615 1.9325-5.8425zm-17.569-8.785c-0.82125 0-1.465-0.2325-1.9338-0.70375-0.46875-0.465-0.70375-1.11-0.70375-1.9312v-4.3925c0-0.81875 0.235-1.4625 0.70375-1.9312s1.1125-0.70375 1.9338-0.70375h3.0738c0.82 0 1.4638 0.235 1.9325 0.70375s0.70375 1.1125 0.70375 1.9312v4.3925c0 0.82125-0.235 1.4662-0.70375 1.9312-0.46875 0.47125-1.1125 0.70375-1.9325 0.70375zm15.811 0c-0.82 0-1.4638-0.2325-1.9312-0.70375-0.47125-0.465-0.70375-1.11-0.70375-1.9312v-4.3925c0-0.81875 0.2325-1.4625 0.70375-1.9312 0.4675-0.46875 1.1112-0.70375 1.9312-0.70375h3.0762c0.8175 0 1.4625 0.235 1.9312 0.70375 0.4675 0.46875 0.70125 1.1125 0.70125 1.9312v4.3925c0 0.82125-0.23375 1.4662-0.70125 1.9312-0.46875 0.47125-1.1138 0.70375-1.9312 0.70375zm-45.68 45.681c-0.82 0-1.4638-0.2325-1.9312-0.7025-0.47125-0.46875-0.7025-1.1125-0.7025-1.9325v-22.402c0-4.2738 1.23-7.7575 3.6888-10.452 2.46-2.6925 5.885-4.0412 10.278-4.0412h3.1625c0.82125 0 1.465 0.235 1.9338 0.7025 0.4675 0.47 0.7025 1.1138 0.7025 1.9325v2.1962c0 0.82125-0.235 1.4638-0.7025 1.9338-0.46875 0.46875-1.1125 0.7025-1.9338 0.7025h-2.635c-2.2262 0-3.88 0.69-4.9625 2.0638-1.085 1.3775-1.6262 3.1788-1.6262 5.4038v21.961c0 0.82-0.23375 1.4638-0.70125 1.9325-0.47125 0.47-1.1138 0.7025-1.9338 0.7025zm-22.225 15.022c-0.995-1.2888-0.76125-2.4888 0.70375-3.6012 0.76-0.52625 1.4062-1.1862 1.9325-1.9762 0.52625-0.79125 0.79125-1.86 0.79125-3.2075 0-1.8738-0.7175-3.3812-2.1525-4.5238s-3.265-1.7125-5.49-1.7125h-15.11c-0.82125 0-1.4638-0.23375-1.9325-0.7025-0.47-0.46875-0.70375-1.1125-0.70375-1.9325v-2.1962c0-1.2875 0.4975-2.605 1.4938-3.9538l4.1288-5.7088c0.29375-0.46875 0.39625-0.93875 0.3075-1.4075-0.0888-0.4675-0.25-0.8475-0.4825-1.1412-0.87875-1.17-1.5675-2.4888-2.065-3.9525-0.4975-1.4625-0.74625-2.9575-0.74625-4.48 0-2.05 0.4225-3.9838 1.2738-5.7988 0.8475-1.815 1.9762-3.395 3.3812-4.745 1.4075-1.345 3.0312-2.415 4.8762-3.205 1.8438-0.79125 3.7912-1.1875 5.8425-1.1875 0.58375 0 1.1862 0.0325 1.8012 0.0888 0.615 0.06 1.3288 0.235 2.15 0.52625 0.82 0.23625 1.4062 0.265 1.7588 0.0888 0.35125-0.175 0.67125-0.4675 0.96625-0.8775l2.8112-3.7775c0.4675-0.64375 1.0375-1.0112 1.7125-1.0988 0.6725-0.0875 1.33 0.10375 1.9762 0.57125l1.7562 1.2312c0.645 0.46875 1.0112 1.0388 1.0975 1.7125 0.0888 0.67375-0.1025 1.3325-0.56875 1.9762l-2.8112 3.7775c-0.29375 0.46875-0.35125 0.96625-0.1775 1.4925 0.1775 0.5275 0.40875 1.0262 0.70375 1.4925 1.4638 2.4025 2.1962 4.9788 2.1962 7.7325 0 2.05-0.42625 3.9838-1.2738 5.7962-0.85 1.8162-1.9775 3.3825-3.3812 4.7012-1.4075 1.3175-3.0312 2.3575-4.8762 3.1175-1.845 0.7625-3.7925 1.1438-5.8412 1.1438-0.82125 0-1.5825-0.0587-2.285-0.1775-0.7025-0.11625-1.3175-0.23375-1.845-0.3525-0.46875-0.115-0.90875-0.13125-1.3188-0.0425-0.40875 0.0888-0.76 0.36625-1.0512 0.835l-1.4075 1.9338c-0.52625 0.82-0.26375 1.2288 0.7925 1.2288h6.7625c2.1075 0 4.115 0.3225 6.0175 0.9675 1.9038 0.6425 3.5712 1.5512 5.0075 2.7212 1.4338 1.1725 2.5612 2.5912 3.3812 4.2612 0.82125 1.6688 1.23 3.5275 1.23 5.5775 0 2.9875-0.62875 5.3875-1.8875 7.205-1.2612 1.8125-2.6225 3.22-4.0862 4.215-0.64375 0.40875-1.2875 0.54-1.9312 0.39625-0.645-0.1475-1.2012-0.48375-1.6688-1.0112zm-3.9512-33.03c0.995 0 1.945-0.18875 2.8538-0.57125 0.90875-0.38125 1.6975-0.9075 2.3725-1.5812 0.6725-0.6725 1.2138-1.4638 1.625-2.3712 0.40875-0.9075 0.615-1.89 0.615-2.9425 0-1.055-0.20625-2.0362-0.615-2.9438-0.41125-0.90875-0.9525-1.6975-1.625-2.3725-0.675-0.67125-1.4638-1.1988-2.3725-1.5812-0.90875-0.38-1.8588-0.57-2.8538-0.57-0.9975 0-1.9475 0.19-2.8562 0.57-0.9075 0.3825-1.7 0.91-2.3712 1.5812-0.67375 0.675-1.2162 1.4638-1.625 2.3725-0.41125 0.9075-0.615 1.8888-0.615 2.9438 0 1.0525 0.20375 2.035 0.615 2.9425 0.40875 0.9075 0.95125 1.6988 1.625 2.3712 0.67125 0.67375 1.4638 1.2 2.3712 1.5812 0.90875 0.3825 1.8588 0.57125 2.8562 0.57125m-38.654 18.008c-0.82125 0-1.4638-0.2325-1.9312-0.7025-0.47125-0.46875-0.7025-1.1125-0.7025-1.9325v-22.402c0-4.2738 1.23-7.7575 3.6888-10.452 2.46-2.6925 5.885-4.0412 10.278-4.0412h3.1625c0.82125 0 1.465 0.235 1.9338 0.7025 0.4675 0.47 0.7025 1.1138 0.7025 1.9325v2.1962c0 0.82125-0.235 1.4638-0.7025 1.9338-0.46875 0.46875-1.1125 0.7025-1.9338 0.7025h-2.635c-2.2262 0-3.88 0.69-4.9625 2.0638-1.085 1.3775-1.6262 3.1788-1.6262 5.4038v21.961c0 0.82-0.23375 1.4638-0.70125 1.9325-0.47125 0.47-1.1138 0.7025-1.9338 0.7025zm-14.054-8.6089c0.5275 0.52625 0.77625 1.1125 0.74625 1.7562-0.03 0.64625-0.27875 1.2612-0.74625 1.845-1.1725 1.465-2.8975 2.8112-5.1825 4.0412-2.285 1.2312-5.0075 1.8462-8.17 1.8462-2.46 0-4.6712-0.39625-6.6312-1.1875-1.965-0.79-3.6462-1.8888-5.0538-3.2938-1.4038-1.4062-2.4888-3.0462-3.25-4.9188-0.76125-1.875-1.1425-3.8662-1.1425-5.9738v-10.366c0-2.1088 0.3375-4.115 1.0112-6.0175 0.67375-1.9038 1.6688-3.5588 2.9875-4.9625 1.3175-1.4075 2.9275-2.5188 4.8312-3.3388 1.9025-0.82 4.085-1.2312 6.5438-1.2312 2.4612 0 4.6562 0.41125 6.5888 1.2312s3.5875 1.9312 4.9638 3.3388c1.375 1.4038 2.43 3.0588 3.1625 4.9625 0.7325 1.9025 1.0988 3.9088 1.0988 6.0175v5.27c0 0.82125-0.235 1.465-0.70375 1.9338s-1.1125 0.70125-1.9325 0.70125h-19.766c-0.58625 0-0.8775 0.29375-0.8775 0.88v1.5812c0 2.225 0.65875 4.0988 1.9762 5.6225 1.3175 1.5225 3.3825 2.2825 6.1938 2.2825 2.225 0 3.9525-0.39625 5.1825-1.185 1.23-0.7925 2.1662-1.5388 2.8112-2.24 0.645-0.645 1.2888-0.95125 1.9312-0.9225 0.645 0.03 1.2312 0.3075 1.7588 0.835zm-6.15-16.251c0-2.225-0.61375-4.1288-1.8438-5.71s-3.2512-2.3725-6.0625-2.3725c-2.7538 0-4.685 0.79125-5.7962 2.3725-1.1138 1.5812-1.67 3.485-1.67 5.71v0.4375c0 0.58625 0.29125 0.88 0.8775 0.88h13.618c0.58375 0 0.8775-0.29375 0.8775-0.88zm-50.071 24.86c-2.285 0-4.38-0.38-6.2825-1.1425-1.9025-0.76-3.5288-1.8-4.8762-3.1188-1.3462-1.3162-2.3862-2.8975-3.1162-4.7425-0.73375-1.8462-1.0988-3.8212-1.0988-5.93v-9.6625c0-2.11 0.38125-4.085 1.1412-5.9312 0.76125-1.845 1.8012-3.4262 3.12-4.7425 1.3175-1.3188 2.8988-2.3575 4.7425-3.1188 1.8462-0.76 3.8512-1.1425 6.0188-1.1425h8.695c0.58625 0 0.87875-0.2925 0.87875-0.87875v-16.69c0-0.82 0.23375-1.4625 0.70375-1.9325 0.46875-0.46875 1.1112-0.7025 1.9325-0.7025h2.635c0.82 0 1.4625 0.23375 1.9338 0.7025 0.4675 0.47 0.70125 1.1125 0.70125 1.9325v54.465c0 0.82-0.23375 1.4638-0.70125 1.9325-0.47125 0.47-1.1138 0.7025-1.9338 0.7025zm9.2225-31.185c0-0.585-0.2925-0.87875-0.87875-0.87875h-8.3438c-2.2275 0-4.0275 0.69-5.4038 2.0638-1.3762 1.3775-2.0638 3.1788-2.0638 5.4038v9.6625c0 2.2275 0.73125 4.0275 2.1962 5.4025 1.4625 1.3775 3.2212 2.0638 5.2712 2.0638h8.3438c0.58625 0 0.87875-0.2925 0.87875-0.87875zm-35.136 22.576c0.52625 0.52625 0.775 1.1125 0.74625 1.7562-0.0312 0.64625-0.27875 1.2612-0.74625 1.845-1.1725 1.465-2.9 2.8112-5.185 4.0412-2.2825 1.2312-5.0062 1.8462-8.1688 1.8462-2.46 0-4.67-0.39625-6.6325-1.1875-1.9625-0.79-3.645-1.8888-5.0512-3.2938-1.405-1.4062-2.4888-3.0462-3.25-4.9188-0.76125-1.875-1.1425-3.8662-1.1425-5.9738v-10.366c0-2.1088 0.33625-4.115 1.0112-6.0175 0.6725-1.9038 1.6688-3.5588 2.985-4.9625 1.3188-1.4075 2.9288-2.5188 4.8338-3.3388 1.9012-0.82 4.0825-1.2312 6.5438-1.2312 2.46 0 4.6562 0.41125 6.5888 1.2312 1.9312 0.82 3.5875 1.9312 4.9625 3.3388 1.375 1.4038 2.43 3.0588 3.1625 4.9625 0.7325 1.9025 1.0988 3.9088 1.0988 6.0175v5.27c0 0.82125-0.235 1.465-0.70375 1.9338s-1.1125 0.70125-1.9312 0.70125h-19.766c-0.58625 0-0.87875 0.29375-0.87875 0.88v1.5812c0 2.225 0.66 4.0988 1.9775 5.6225 1.3162 1.5225 3.3812 2.2825 6.1925 2.2825 2.2238 0 3.9538-0.39625 5.1838-1.185 1.23-0.7925 2.165-1.5388 2.8112-2.24 0.64375-0.645 1.2862-0.95125 1.9312-0.9225 0.645 0.03 1.2312 0.3075 1.7575 0.835zm-6.1512-16.251c0-2.225-0.615-4.1288-1.8438-5.71-1.23-1.5812-3.25-2.3725-6.0612-2.3725-2.7538 0-4.685 0.79125-5.7975 2.3725s-1.67 3.485-1.67 5.71v0.4375c0 0.58625 0.2925 0.88 0.87875 0.88h13.616c0.585 0 0.8775-0.29375 0.8775-0.88zm-39.09-20.82c-0.82125 0-1.4638-0.2325-1.9325-0.70375-0.47-0.46625-0.7025-1.11-0.7025-1.9312v-4.3925c0-0.81875 0.2325-1.4625 0.7025-1.9312 0.46875-0.46875 1.1112-0.70375 1.9325-0.70375h2.635c0.82 0 1.4625 0.235 1.9338 0.70375 0.4675 0.46875 0.70125 1.1125 0.70125 1.9312v4.3925c0 0.82125-0.23375 1.465-0.70125 1.9312-0.47125 0.47125-1.1138 0.70375-1.9338 0.70375zm0 45.68c-0.82125 0-1.4638-0.2325-1.9325-0.70125-0.47-0.46875-0.7025-1.1125-0.7025-1.9338v-34.26c0-0.82 0.2325-1.4625 0.7025-1.9338 0.46875-0.4675 1.1112-0.70125 1.9325-0.70125h2.635c0.82 0 1.4625 0.23375 1.9338 0.70125 0.4675 0.47125 0.70125 1.1138 0.70125 1.9338v34.26c0 0.82125-0.23375 1.465-0.70125 1.9338-0.47125 0.46875-1.1138 0.70125-1.9338 0.70125zm-21.96-36.895c0-0.81875 0.2325-1.4625 0.7025-1.9325 0.46875-0.4675 1.1125-0.7025 1.9325-0.7025h2.635c0.82 0 1.4625 0.235 1.9338 0.7025 0.4675 0.47 0.70125 1.1138 0.70125 1.9325v22.84c0 2.1088-0.36625 4.0862-1.0975 5.93-0.7325 1.845-1.7562 3.4262-3.0738 4.745-1.3188 1.3162-2.915 2.3575-4.7875 3.1162-1.8762 0.76125-3.955 1.1438-6.2362 1.1438-2.345 0-4.38-0.3825-6.1075-1.1438-1.7288-0.75875-3.1488-1.6975-4.2588-2.8112-0.52875-0.52625-1.085-0.52625-1.67 0-1.1725 0.99875-2.6225 1.905-4.35 2.7238-1.7275 0.82-3.7025 1.2312-5.9275 1.2312-2.285 0-4.3638-0.3825-6.2375-1.1438-1.875-0.75875-3.4712-1.8-4.7875-3.1162-1.3188-1.3188-2.3438-2.9-3.0762-4.745-0.73125-1.8438-1.0975-3.8212-1.0975-5.93v-22.84c0-0.81875 0.23375-1.4625 0.70375-1.9325 0.46875-0.4675 1.1112-0.7025 1.9325-0.7025h2.635c0.82 0 1.4625 0.235 1.9312 0.7025 0.47 0.47 0.70375 1.1138 0.70375 1.9325v22.84c0 0.9375 0.14625 1.845 0.43875 2.7238 0.29375 0.87875 0.7325 1.6675 1.3188 2.3712 0.585 0.70375 1.345 1.2738 2.2838 1.7138 0.93625 0.44 2.0212 0.65875 3.2512 0.65875s2.2962-0.21875 3.205-0.65875c0.9075-0.44 1.655-1.01 2.2412-1.7138 0.585-0.70375 1.0238-1.4925 1.3162-2.3712 0.29375-0.87875 0.44-1.7862 0.44-2.7238v-22.84c0-0.81875 0.23375-1.4625 0.7025-1.9325 0.4675-0.4675 1.1112-0.7025 1.9338-0.7025h2.635c0.81875 0 1.4638 0.235 1.9325 0.7025 0.4675 0.47 0.7025 1.1138 0.7025 1.9325v22.84c0 0.9375 0.1325 1.845 0.39625 2.7238 0.2625 0.87875 0.68625 1.6675 1.2725 2.3712s1.3325 1.2738 2.2412 1.7138c0.90625 0.44 2.005 0.65875 3.295 0.65875 1.2862 0 2.385-0.21875 3.2938-0.65875 0.90625-0.44 1.6525-1.01 2.2388-1.7138 0.585-0.70375 1.0238-1.4925 1.3188-2.3712 0.29125-0.87875 0.43875-1.7862 0.43875-2.7238z" fill="#ffffff"/>
</g>
</svg>
